<mxfile host="65bd71144e">
    <diagram id="hge-rfY1_k9c14DMk7zv" name="Page-1">
        <mxGraphModel dx="538" dy="1086" grid="1" gridSize="10" guides="1" tooltips="1" connect="1" arrows="1" fold="1" page="1" pageScale="1" pageWidth="850" pageHeight="1100" math="0" shadow="0">
            <root>
                <mxCell id="0"/>
                <mxCell id="1" parent="0"/>
                <mxCell id="2" value="" style="rounded=0;whiteSpace=wrap;html=1;fillColor=#eeeeee;strokeColor=#36393d;" parent="1" vertex="1">
                    <mxGeometry x="85" y="280" width="310" height="650" as="geometry"/>
                </mxCell>
                <mxCell id="3" value="栈顶帧" style="rounded=0;whiteSpace=wrap;html=1;fillColor=#d80073;fontColor=#ffffff;strokeColor=#A50040;fontSize=24;" parent="1" vertex="1">
                    <mxGeometry x="140" y="330" width="200" height="80" as="geometry"/>
                </mxCell>
                <mxCell id="4" value="..." style="rounded=0;whiteSpace=wrap;html=1;fillColor=#647687;fontColor=#ffffff;strokeColor=#314354;fontSize=24;" parent="1" vertex="1">
                    <mxGeometry x="140" y="440" width="200" height="220" as="geometry"/>
                </mxCell>
                <mxCell id="5" value="栈帧 - 1" style="rounded=0;whiteSpace=wrap;html=1;fillColor=#647687;fontColor=#ffffff;strokeColor=#314354;fontSize=24;" parent="1" vertex="1">
                    <mxGeometry x="140" y="800" width="200" height="80" as="geometry"/>
                </mxCell>
                <mxCell id="6" value="栈帧 - 2" style="rounded=0;whiteSpace=wrap;html=1;fillColor=#647687;fontColor=#ffffff;strokeColor=#314354;fontSize=24;" parent="1" vertex="1">
                    <mxGeometry x="140" y="690" width="200" height="80" as="geometry"/>
                </mxCell>
                <mxCell id="8" value="" style="shape=singleArrow;direction=south;whiteSpace=wrap;html=1;fillColor=#1ba1e2;fontColor=#ffffff;strokeColor=#006EAF;" parent="1" vertex="1">
                    <mxGeometry x="150" y="80" width="60" height="250" as="geometry"/>
                </mxCell>
                <mxCell id="9" value="" style="shape=singleArrow;direction=north;whiteSpace=wrap;html=1;fillColor=#1ba1e2;fontColor=#ffffff;strokeColor=#006EAF;" parent="1" vertex="1">
                    <mxGeometry x="270" y="80" width="60" height="250" as="geometry"/>
                </mxCell>
                <mxCell id="10" value="压栈" style="text;html=1;strokeColor=none;fillColor=none;align=center;verticalAlign=middle;whiteSpace=wrap;rounded=0;fontSize=24;" parent="1" vertex="1">
                    <mxGeometry x="110" y="180" width="60" height="30" as="geometry"/>
                </mxCell>
                <mxCell id="11" value="出栈" style="text;html=1;strokeColor=none;fillColor=none;align=center;verticalAlign=middle;whiteSpace=wrap;rounded=0;fontSize=24;" parent="1" vertex="1">
                    <mxGeometry x="320" y="180" width="60" height="30" as="geometry"/>
                </mxCell>
                <mxCell id="12" value="" style="shape=singleArrow;whiteSpace=wrap;html=1;fontSize=24;fillColor=#1ba1e2;fontColor=#ffffff;strokeColor=#006EAF;" parent="1" vertex="1">
                    <mxGeometry x="410" y="340" width="100" height="60" as="geometry"/>
                </mxCell>
                <mxCell id="13" value="" style="rounded=0;whiteSpace=wrap;html=1;fontSize=24;fillColor=#60a917;fontColor=#ffffff;strokeColor=#2D7600;" parent="1" vertex="1">
                    <mxGeometry x="530" y="300" width="710" height="190" as="geometry"/>
                </mxCell>
                <mxCell id="14" value="当前活动栈" style="text;html=1;strokeColor=none;fillColor=none;align=center;verticalAlign=middle;whiteSpace=wrap;rounded=0;fontSize=24;" parent="1" vertex="1">
                    <mxGeometry x="690" y="310" width="320" height="50" as="geometry"/>
                </mxCell>
                <mxCell id="15" value="局部变量表" style="rounded=0;whiteSpace=wrap;html=1;fontSize=24;fillColor=#008a00;fontColor=#ffffff;strokeColor=#005700;" parent="1" vertex="1">
                    <mxGeometry x="550" y="360" width="170" height="105" as="geometry"/>
                </mxCell>
                <mxCell id="16" value="操作栈" style="rounded=0;whiteSpace=wrap;html=1;fontSize=24;fillColor=#008a00;fontColor=#ffffff;strokeColor=#005700;" parent="1" vertex="1">
                    <mxGeometry x="740" y="360" width="100" height="105" as="geometry"/>
                </mxCell>
                <mxCell id="17" value="动态链接&lt;span style=&quot;color: rgba(0 , 0 , 0 , 0) ; font-family: monospace ; font-size: 0px&quot;&gt;%3CmxGraphModel%3E%3Croot%3E%3CmxCell%20id%3D%220%22%2F%3E%3CmxCell%20id%3D%221%22%20parent%3D%220%22%2F%3E%3CmxCell%20id%3D%222%22%20value%3D%22%E5%B1%80%E9%83%A8%E5%8F%98%E9%87%8F%E8%A1%A8%22%20style%3D%22rounded%3D0%3BwhiteSpace%3Dwrap%3Bhtml%3D1%3BfontSize%3D24%3B%22%20vertex%3D%221%22%20parent%3D%221%22%3E%3CmxGeometry%20x%3D%22550%22%20y%3D%22360%22%20width%3D%22170%22%20height%3D%22105%22%20as%3D%22geometry%22%2F%3E%3C%2FmxCell%3E%3C%2Froot%3E%3C%2FmxGraphModel%3E&lt;/span&gt;" style="rounded=0;whiteSpace=wrap;html=1;fontSize=24;fillColor=#008a00;fontColor=#ffffff;strokeColor=#005700;" parent="1" vertex="1">
                    <mxGeometry x="860" y="360" width="170" height="105" as="geometry"/>
                </mxCell>
                <mxCell id="18" value="方法返回地址" style="rounded=0;whiteSpace=wrap;html=1;fontSize=24;fillColor=#008a00;fontColor=#ffffff;strokeColor=#005700;" parent="1" vertex="1">
                    <mxGeometry x="1050" y="360" width="170" height="105" as="geometry"/>
                </mxCell>
                <mxCell id="19" value="" style="shape=singleArrow;direction=south;whiteSpace=wrap;html=1;fontSize=24;fillColor=#1ba1e2;fontColor=#ffffff;strokeColor=#006EAF;" parent="1" vertex="1">
                    <mxGeometry x="740" y="500" width="60" height="100" as="geometry"/>
                </mxCell>
                <mxCell id="20" value="" style="shape=singleArrow;direction=north;whiteSpace=wrap;html=1;fontSize=24;fillColor=#1ba1e2;fontColor=#ffffff;strokeColor=#006EAF;" parent="1" vertex="1">
                    <mxGeometry x="920" y="500" width="60" height="100" as="geometry"/>
                </mxCell>
                <mxCell id="21" value="" style="rounded=0;whiteSpace=wrap;html=1;fontSize=24;" parent="1" vertex="1">
                    <mxGeometry x="610" y="600" width="480" height="120" as="geometry"/>
                </mxCell>
                <mxCell id="22" value="执行方法" style="rounded=0;whiteSpace=wrap;html=1;fontSize=24;fillColor=#d80073;fontColor=#ffffff;strokeColor=#A50040;" parent="1" vertex="1">
                    <mxGeometry x="650" y="632.5" width="170" height="57.5" as="geometry"/>
                </mxCell>
                <mxCell id="23" value="异常分派" style="rounded=0;whiteSpace=wrap;html=1;fontSize=24;fillColor=#d80073;fontColor=#ffffff;strokeColor=#A50040;fontStyle=0" parent="1" vertex="1">
                    <mxGeometry x="880" y="632.5" width="170" height="57.5" as="geometry"/>
                </mxCell>
            </root>
        </mxGraphModel>
    </diagram>
</mxfile>